{
  "accessors": [
    {
      "bufferView": 2,
      "componentType": 5126,
      "count": 5842,
      "max": [
        0.5867302417755127,
        2.1736388206481934,
        0.3488295376300812
      ],
      "min": [
        -0.5867302417755127,
        -0.00040979383629746735,
        -0.18396411836147308
      ],
      "type": "VEC3"
    },
    {
      "bufferView": 2,
      "byteOffset": 70104,
      "componentType": 5126,
      "count": 5842,
      "max": [
        1.0,
        1.0,
        0.9998884201049805
      ],
      "min": [
        -1.0,
        -0.9999999403953552,
        -0.9999021887779236
      ],
      "type": "VEC3"
    },
    {
      "bufferView": 3,
      "componentType": 5126,
      "count": 5842,
      "max": [
        1.0,
        0.9975801706314087,
        0.9998992085456848,
        1.0
      ],
      "min": [
        -1.0,
        -0.9999211430549622,
        -0.9999958872795105,
        -1.0
      ],
      "type": "VEC4"
    },
    {
      "bufferView": 1,
      "componentType": 5126,
      "count": 5842,
      "max": [
        1.9856491088867188,
        0.9906082153320313
      ],
      "min": [
        0.0092315673828125,
        0.0107421875
      ],
      "type": "VEC2"
    },
    {
      "bufferView": 0,
      "componentType": 5125,
      "count": 27528,
      "type": "SCALAR"
    }
  ],
  "asset": {
    "extras": {
      "author": "JohnLogostini (https://sketchfab.com/JohnLogostini)",
      "license": "CC-BY-NC-4.0 (http://creativecommons.org/licenses/by-nc/4.0/)",
      "source": "https://sketchfab.com/3d-models/disney-infinity-30-avg-black-panther-b124d719ad844876b8744c818d846847",
      "title": "Disney Infinity 3.0 - AVG Black Panther"
    },
    "generator": "Sketchfab-15.30.0",
    "version": "2.0"
  },
  "bufferViews": [
    {
      "buffer": 0,
      "byteLength": 110112,
      "name": "floatBufferViews",
      "target": 34963
    },
    {
      "buffer": 0,
      "byteLength": 46736,
      "byteOffset": 110112,
      "byteStride": 8,
      "name": "floatBufferViews",
      "target": 34962
    },
    {
      "buffer": 0,
      "byteLength": 140208,
      "byteOffset": 156848,
      "byteStride": 12,
      "name": "floatBufferViews",
      "target": 34962
    },
    {
      "buffer": 0,
      "byteLength": 93472,
      "byteOffset": 297056,
      "byteStride": 16,
      "name": "floatBufferViews",
      "target": 34962
    }
  ],
  "buffers": [
    {
      "byteLength": 390528,
      "uri": "scene.bin"
    }
  ],
  "images": [
    {
      "uri": "textures/AVG_Black_Panther_baseColor.png"
    },
    {
      "uri": "textures/AVG_Black_Panther_metallicRoughness.png"
    },
    {
      "uri": "textures/AVG_Black_Panther_normal.png"
    }
  ],
  "materials": [
    {
      "name": "AVG_Black_Panther",
      "normalTexture": {
        "index": 2
      },
      "occlusionTexture": {
        "index": 1
      },
      "pbrMetallicRoughness": {
        "baseColorTexture": {
          "index": 0
        },
        "metallicFactor": 0.0,
        "metallicRoughnessTexture": {
          "index": 1
        }
      }
    }
  ],
  "meshes": [
    {
      "name": "AVG_Black_Panther_Body_AVG_Black_Panther_0",
      "primitives": [
        {
          "attributes": {
            "NORMAL": 1,
            "POSITION": 0,
            "TANGENT": 2,
            "TEXCOORD_0": 3
          },
          "indices": 4,
          "material": 0,
          "mode": 4
        }
      ]
    }
  ],
  "nodes": [
    {
      "children": [
        1
      ],
      "matrix": [
        0.8849557638168335,
        0.0,
        0.0,
        0.0,
        0.0,
        1.964996529528381e-16,
        -0.8849557638168335,
        0.0,
        0.0,
        0.8849557638168335,
        1.964996529528381e-16,
        0.0,
        0.0,
        0.0,
        0.0,
        1.0
      ],
      "name": "Sketchfab_model"
    },
    {
      "children": [
        2
      ],
      "matrix": [
        0.009999999776482582,
        0.0,
        0.0,
        0.0,
        0.0,
        0.0,
        0.009999999776482582,
        0.0,
        0.0,
        -0.009999999776482582,
        0.0,
        0.0,
        0.0,
        0.0,
        0.0,
        1.0
      ],
      "name": "f8ac0751885740809da00ae5991498dd.fbx"
    },
    {
      "children": [
        3
      ],
      "name": "RootNode"
    },
    {
      "children": [
        4
      ],
      "matrix": [
        100.0,
        0.0,
        0.0,
        0.0,
        0.0,
        99.9999999999999,
        4.371138828673792e-06,
        0.0,
        0.0,
        -4.371138828673792e-06,
        99.9999999999999,
        0.0,
        0.0,
        0.0,
        0.0,
        1.0
      ],
      "name": "AVG_Black_Panther_Body"
    },
    {
      "mesh": 0,
      "name": "AVG_Black_Panther_Body_AVG_Black_Panther_0"
    }
  ],
  "samplers": [
    {
      "magFilter": 9729,
      "minFilter": 9987,
      "wrapS": 10497,
      "wrapT": 10497
    }
  ],
  "scene": 0,
  "scenes": [
    {
      "name": "Sketchfab_Scene",
      "nodes": [
        0
      ]
    }
  ],
  "textures": [
    {
      "sampler": 0,
      "source": 0
    },
    {
      "sampler": 0,
      "source": 1
    },
    {
      "sampler": 0,
      "source": 2
    }
  ]
}
